HIERARCHY
ROOT Hips
{
 OFFSET 0.000000 0.000000 0.000000
 CHANNELS 6 Xposition Yposition Zposition Yrotation Xrotation Zrotation
 JOINT Chest
 {
  OFFSET 0.000000 14.634200 -0.016200
  CHANNELS 3 Yrotation Xrotation Zrotation
  JOINT Chest2
  {
   OFFSET 0.000000 8.932900 0.033000
   CHANNELS 3 Yrotation Xrotation Zrotation
   JOINT Chest3
   {
    OFFSET 0.000000 8.892300 0.000000
    CHANNELS 3 Yrotation Xrotation Zrotation
    JOINT Chest4
    {
     OFFSET 0.000000 8.883200 0.000000
     CHANNELS 3 Yrotation Xrotation Zrotation
     JOINT Neck
     {
      OFFSET 0.000000 13.173600 0.000000
      CHANNELS 3 Yrotation Xrotation Zrotation
      JOINT Head
      {
       OFFSET 0.000000 8.324600 0.069800
       CHANNELS 3 Yrotation Xrotation Zrotation
       End Site
       {
        OFFSET 0.000000 15.692400 0.036900
       }
      }
     }
     JOINT RightCollar
     {
      OFFSET -2.619200 8.772200 0.000000
      CHANNELS 3 Yrotation Xrotation Zrotation
      JOINT RightShoulder
      {
       OFFSET -12.922000 0.000000 0.000000
       CHANNELS 3 Yrotation Xrotation Zrotation
       JOINT RightElbow
       {
        OFFSET 0.000000 -27.880900 0.000000
        CHANNELS 3 Yrotation Xrotation Zrotation
        JOINT RightWrist
        {
         OFFSET 0.000000 -22.758700 0.008200
         CHANNELS 3 Yrotation Xrotation Zrotation
         End Site
         {
          OFFSET 0.000000 -16.965000 0.000000
         }
        }
       }
      }
     }
     JOINT LeftCollar
     {
      OFFSET 2.619200 8.772200 0.000000
      CHANNELS 3 Yrotation Xrotation Zrotation
      JOINT LeftShoulder
      {
       OFFSET 12.922000 0.000000 0.000000
       CHANNELS 3 Yrotation Xrotation Zrotation
       JOINT LeftElbow
       {
        OFFSET 0.000000 -27.880900 0.000000
        CHANNELS 3 Yrotation Xrotation Zrotation
        JOINT LeftWrist
        {
         OFFSET 0.000000 -22.758700 0.008200
         CHANNELS 3 Yrotation Xrotation Zrotation
         End Site
         {
          OFFSET 0.000000 -16.965000 0.000000
         }
        }
       }
      }
     }
    }
   }
  }
 }
 JOINT RightHip
 {
  OFFSET -12.026800 0.080100 0.008100
  CHANNELS 3 Yrotation Xrotation Zrotation
  JOINT RightKnee
  {
   OFFSET 0.000000 -42.600800 -0.000200
   CHANNELS 3 Yrotation Xrotation Zrotation
   JOINT RightAnkle
   {
    OFFSET 0.000000 -38.219300 0.054300
    CHANNELS 3 Yrotation Xrotation Zrotation
    JOINT RightToe
    {
     OFFSET 0.000000 -9.685800 15.804700
     CHANNELS 3 Yrotation Xrotation Zrotation
     End Site
     {
      OFFSET 0.000000 -1.422300 5.761700
     }
    }
   }
  }
 }
 JOINT LeftHip
 {
  OFFSET 12.026800 0.080100 0.008100
  CHANNELS 3 Yrotation Xrotation Zrotation
  JOINT LeftKnee
  {
   OFFSET 0.000000 -42.600800 -0.000200
   CHANNELS 3 Yrotation Xrotation Zrotation
   JOINT LeftAnkle
   {
    OFFSET 0.000000 -38.219300 0.054300
    CHANNELS 3 Yrotation Xrotation Zrotation
    JOINT LeftToe
    {
     OFFSET 0.000000 -9.685800 15.804700
     CHANNELS 3 Yrotation Xrotation Zrotation
     End Site
     {
      OFFSET 0.000000 -1.422300 5.761700
     }
    }
   }
  }
 }
}
MOTION
Frames: 9
Frame Time: 0.008333
0.000000 90.254400 0.000000 0.000000 -5.767877 0.000000 0.000000 11.653817 0.000000 0.000000 -5.885947 0.000000 0.000000 -0.000000 0.000000 0.000000 -0.000000 0.000000 0.000000 12.528835 0.000000 0.000000 0.711642 0.000000 0.000000 -0.000000 0.000000 0.000000 0.000000 -90.000000 0.000000 -2.309062 0.000000 0.000000 2.309062 0.000000 0.000000 -0.000000 0.000000 0.000000 -0.000000 90.000000 0.000000 -2.309062 0.000000 0.000000 2.309062 0.000000 0.000000 8.520406 0.000000 0.000000 1.905762 0.000000 -0.000000 -4.658285 0.000000 0.000000 -0.000000 0.000000 0.000000 8.520406 0.000000 0.000000 1.905762 0.000000 -0.000000 -4.658285 0.000000 0.000000 -0.000000 0.000000
-11.193287 151.966378 23.130485 169.567530 -18.331928 -0.007941 0.740357 20.956859 0.973064 0.080921 2.733672 0.137929 0.130879 4.467316 0.219834 0.656694 17.912550 0.982545 -1.624528 11.159243 -0.129953 -1.671602 -13.923106 0.233821 7.595734 -2.517007 -3.112135 19.043771 -28.764630 -8.065366 -37.651898 -37.595325 50.591675 -4.558371 -24.749381 -52.975870 -8.966225 -1.653004 -1.902226 -5.101490 -27.469205 2.423748 33.790519 -32.230158 -50.580996 8.974277 -19.406887 19.747609 -3.311335 -54.198320 11.586304 -26.455538 76.956038 -38.661006 -7.459894 -18.741572 10.809778 0.061072 -0.160624 0.037071 22.097607 -51.508494 -23.456077 76.593671 76.199180 87.203123 6.486310 -2.710382 -4.712158 0.055876 -3.361202 0.867733
-12.284408 144.722011 24.640434 169.563805 -18.333894 -0.084424 0.774684 20.957748 1.058664 0.082299 2.732727 0.138897 0.131739 4.465580 0.223990 0.650515 17.915270 0.979319 -1.621125 11.155132 -0.131324 -1.671305 -13.923206 0.231674 7.597145 -2.514969 -3.113482 19.044671 -28.763945 -8.070807 -37.647126 -37.598209 50.591843 -4.563101 -24.748596 -52.974187 -8.965240 -1.653982 -1.904801 -5.123838 -27.470292 2.436573 33.811830 -32.226955 -50.583405 8.980388 -19.411775 19.750680 -3.416010 -54.199687 11.717665 -26.461875 76.965849 -38.666978 -7.440491 -18.814271 10.825490 0.024432 -0.097096 0.014967 22.003509 -51.534221 -23.328413 76.556903 76.204107 87.166898 6.517208 -2.649596 -4.682735 0.043419 0.070712 0.026619
-13.189591 138.755913 25.883247 169.573839 -18.333525 -0.125184 0.784821 20.955141 1.105552 0.078251 2.733857 0.135373 0.131719 4.464688 0.224828 0.649765 17.912998 0.983350 -1.616256 11.153535 -0.133825 -1.665768 -13.924930 0.227990 7.596951 -2.508771 -3.116482 19.043729 -28.764580 -8.072470 -37.644474 -37.601364 50.593285 -4.563594 -24.744559 -52.973501 -8.965789 -1.649855 -1.907658 -5.125033 -27.470914 2.435931 33.814716 -32.225646 -50.583216 8.982665 -19.416059 19.750891 -3.480943 -54.203540 11.783452 -26.462235 76.974413 -38.667786 -7.442886 -18.850829 10.830442 0.013976 -0.064415 0.008563 21.947991 -51.549036 -23.269062 76.543907 76.209333 87.151654 6.535911 -2.619740 -4.670857 0.025173 0.043334 0.015431
-13.838667 134.447029 26.781957 169.578883 -18.332491 -0.172153 0.797807 20.951743 1.156484 0.078336 2.733309 0.135659 0.131409 4.465592 0.223856 0.651497 17.910185 0.986487 -1.611433 11.149020 -0.134677 -1.660725 -13.926856 0.227375 7.594674 -2.503375 -3.117269 19.041813 -28.762495 -8.066417 -37.641995 -37.609711 50.590679 -4.560783 -24.739170 -52.972470 -8.968569 -1.644275 -1.908779 -5.124182 -27.472430 2.435066 33.812814 -32.223124 -50.579321 8.986774 -19.422479 19.749483 -3.550775 -54.207036 11.863093 -26.471350 76.980211 -38.676199 -7.442987 -18.891124 10.836053 0.001892 -0.027836 0.001159 21.883138 -51.570037 -23.193195 76.525948 76.210355 87.134460 6.552176 -2.583470 -4.668093 0.010026 0.013529 0.006145
-14.252325 131.725626 27.348980 169.579391 -18.331776 -0.185565 0.803191 20.948972 1.169363 0.073825 2.734238 0.135767 0.131916 4.464833 0.223595 0.653606 17.908946 0.986460 -1.609873 11.149793 -0.133227 -1.658958 -13.928626 0.227079 7.597475 -2.500815 -3.112923 19.040390 -28.763077 -8.067256 -37.640180 -37.610306 50.588934 -4.559366 -24.736897 -52.972032 -8.967310 -1.640383 -1.907164 -5.123489 -27.475438 2.437013 33.811204 -32.214366 -50.581885 8.986136 -19.432065 19.754088 -3.570807 -54.210380 11.886739 -26.470596 76.983596 -38.675098 -7.444515 -18.899156 10.837305 0.001202 -0.018385 0.000737 21.866295 -51.575266 -23.172775 76.519812 76.209203 87.126712 6.562341 -2.575481 -4.666659 0.006303 0.006527 0.003863
-14.480055 130.228860 27.660929 169.577860 -18.331309 -0.190774 0.802774 20.950402 1.173695 0.073050 2.732800 0.136660 0.132206 4.464802 0.223589 0.654599 17.908818 0.986514 -1.609708 11.148958 -0.132457 -1.658752 -13.929872 0.226836 7.601204 -2.501038 -3.112483 19.038702 -28.765517 -8.068910 -37.632758 -37.615204 50.587681 -4.560796 -24.733724 -52.977641 -8.964374 -1.643294 -1.906037 -5.121976 -27.473477 2.433847 33.811449 -32.208665 -50.585147 8.982421 -19.438203 19.757900 -3.577913 -54.213452 11.897320 -26.484162 76.985179 -38.690404 -7.443417 -18.901516 10.842279 0.000130 -0.012939 0.000080 21.861490 -51.577335 -23.166755 76.519426 76.207067 87.125849 6.569456 -2.571435 -4.665482 0.003187 0.003315 0.001953
-14.587833 129.516188 27.809550 169.571054 -18.331845 -0.193081 0.802721 20.951063 1.176958 0.078806 2.732761 0.135568 0.132340 4.464813 0.223629 0.654187 17.910317 0.988560 -1.610449 11.148668 -0.132420 -1.659506 -13.930217 0.227091 7.602482 -2.501862 -3.115121 19.038644 -28.767446 -8.069578 -37.606002 -37.627030 50.580487 -4.572130 -24.740011 -52.983934 -8.960645 -1.642956 -1.909160 -5.127747 -27.476199 2.436625 33.816003 -32.203303 -50.587264 8.977567 -19.442732 19.760827 -3.581241 -54.212797 11.908327 -26.490985 76.984777 -38.699992 -7.440794 -18.901257 10.846799 0.000749 -0.008128 0.000459 21.864397 -51.577956 -23.162291 76.521322 76.205121 87.128030 6.569191 -2.570280 -4.663352 -0.000292 0.001530 -0.000179
-14.632756 129.224741 27.870128 169.563854 -18.333034 -0.188520 0.804706 20.953485 1.178572 0.077735 2.731410 0.133430 0.132764 4.465306 0.223521 0.655742 17.912549 0.986651 -1.610820 11.148718 -0.133333 -1.660159 -13.930080 0.228115 7.603225 -2.502960 -3.118411 19.038003 -28.769808 -8.069166 -37.529560 -37.675704 50.540383 -4.605402 -24.765720 -52.984620 -8.959558 -1.648326 -1.913807 -5.129966 -27.475299 2.443428 33.820953 -32.195025 -50.591500 8.973195 -19.447671 19.757160 -3.567256 -54.212836 11.900007 -26.492219 76.985526 -38.698864 -7.440432 -18.903303 10.847237 0.000963 -0.006476 0.000590 21.875254 -51.574991 -23.165781 76.533879 76.197589 87.141454 6.559397 -2.573997 -4.666401 0.000179 0.000502 0.000110
